<svg xmlns="http://www.w3.org/2000/svg" viewBox="0 0 1600 900" role="img" aria-label="Sample empty living room">
  <defs>
    <linearGradient id="wall" x1="0" x2="1" y1="0" y2="1">
      <stop offset="0" stop-color="#e8e1d4"/>
      <stop offset="0.62" stop-color="#d4cabc"/>
      <stop offset="1" stop-color="#c0b5a7"/>
    </linearGradient>
    <linearGradient id="floor" x1="0" x2="0.9" y1="0" y2="1">
      <stop offset="0" stop-color="#c9965d"/>
      <stop offset="1" stop-color="#79532f"/>
    </linearGradient>
    <linearGradient id="window" x1="0" x2="1" y1="0" y2="1">
      <stop offset="0" stop-color="#f6fbff"/>
      <stop offset="1" stop-color="#a8c9d5"/>
    </linearGradient>
    <radialGradient id="sun" cx="0.78" cy="0.28" r="0.66">
      <stop offset="0" stop-color="#ffffff" stop-opacity="0.72"/>
      <stop offset="1" stop-color="#ffffff" stop-opacity="0"/>
    </radialGradient>
    <filter id="softShadow" x="-30%" y="-30%" width="160%" height="160%">
      <feGaussianBlur stdDeviation="16"/>
    </filter>
  </defs>
  <rect width="1600" height="900" fill="#d9d0c4"/>
  <polygon points="0,0 318,0 420,560 0,640" fill="#d9d0c2"/>
  <polygon points="318,0 1600,0 1600,620 420,560" fill="url(#wall)"/>
  <polygon points="0,640 420,560 1600,620 1600,900 0,900" fill="url(#floor)"/>
  <polygon points="420,560 1600,620 1600,646 418,588" fill="#f3eee5"/>
  <polygon points="0,640 420,560 418,588 0,668" fill="#eee7dc"/>
  <g opacity="0.34">
    <path d="M96 900 L635 575" stroke="#5c3d22" stroke-width="2"/>
    <path d="M260 900 L745 582" stroke="#5c3d22" stroke-width="2"/>
    <path d="M424 900 L850 588" stroke="#5c3d22" stroke-width="2"/>
    <path d="M588 900 L952 593" stroke="#5c3d22" stroke-width="2"/>
    <path d="M752 900 L1058 599" stroke="#5c3d22" stroke-width="2"/>
    <path d="M916 900 L1166 604" stroke="#5c3d22" stroke-width="2"/>
    <path d="M1080 900 L1278 610" stroke="#5c3d22" stroke-width="2"/>
    <path d="M1244 900 L1392 616" stroke="#5c3d22" stroke-width="2"/>
    <path d="M1408 900 L1508 622" stroke="#5c3d22" stroke-width="2"/>
    <path d="M0 690 L1600 708" stroke="#5c3d22" stroke-width="2"/>
    <path d="M0 744 L1600 762" stroke="#5c3d22" stroke-width="2"/>
    <path d="M0 806 L1600 824" stroke="#5c3d22" stroke-width="2"/>
    <path d="M0 876 L1600 890" stroke="#5c3d22" stroke-width="2"/>
  </g>
  <g>
    <rect x="1240" y="118" width="270" height="412" rx="2" fill="#3f4644"/>
    <rect x="1255" y="134" width="112" height="380" fill="url(#window)"/>
    <rect x="1382" y="134" width="112" height="380" fill="url(#window)"/>
    <path d="M1256 420 C1318 374 1360 414 1405 367 C1448 322 1488 358 1494 336 L1494 514 L1256 514Z" fill="#82a869" opacity="0.55"/>
    <rect x="1230" y="104" width="18" height="448" fill="#afa294"/>
    <rect x="1502" y="104" width="26" height="448" fill="#afa294"/>
    <rect x="1210" y="102" width="18" height="478" fill="#d8d0c6" opacity="0.72"/>
    <rect x="1532" y="102" width="18" height="478" fill="#d8d0c6" opacity="0.72"/>
  </g>
  <g>
    <rect x="90" y="120" width="132" height="548" rx="4" fill="#7e5635"/>
    <rect x="108" y="140" width="96" height="506" rx="2" fill="#8d623d"/>
    <circle cx="196" cy="402" r="8" fill="#2e2520"/>
  </g>
  <g>
    <rect x="314" y="220" width="118" height="190" fill="#f3eee7" stroke="#1d1c1b" stroke-width="9"/>
    <path d="M360 292 C390 258 421 291 404 333 C389 371 342 360 348 322 C350 309 352 300 360 292Z" fill="#1f1f1e"/>
  </g>
  <g filter="url(#softShadow)" opacity="0.22">
    <ellipse cx="405" cy="650" rx="100" ry="34" fill="#000"/>
  </g>
  <g>
    <rect x="366" y="515" width="80" height="122" rx="34" fill="#b69a74"/>
    <path d="M350 548 C375 524 432 520 460 548 L444 638 L366 638Z" fill="#a88a64"/>
    <path d="M408 520 C390 468 370 424 352 378" stroke="#5c482d" stroke-width="8" fill="none"/>
    <path d="M409 510 C436 464 450 428 464 390" stroke="#5c482d" stroke-width="7" fill="none"/>
    <path d="M374 410 C326 372 318 330 350 286" stroke="#496843" stroke-width="12" fill="none"/>
    <path d="M426 392 C474 348 518 342 550 380" stroke="#496843" stroke-width="12" fill="none"/>
    <path d="M382 354 C420 302 470 300 498 342" stroke="#55794d" stroke-width="13" fill="none"/>
    <circle cx="336" cy="332" r="28" fill="#486f43"/>
    <circle cx="395" cy="314" r="34" fill="#5d8253"/>
    <circle cx="472" cy="342" r="30" fill="#52764a"/>
    <circle cx="518" cy="382" r="25" fill="#496f42"/>
  </g>
  <rect width="1600" height="900" fill="url(#sun)"/>
</svg>
